<svg width="171" height="49" viewBox="0 0 171 49" fill="none" xmlns="http://www.w3.org/2000/svg">
<path d="M26.216 2.304V8.88H17.288V36H9.08V8.88H0.152V2.304H26.216ZM38.5434 13.68C39.5034 12.208 40.7034 11.056 42.1434 10.224C43.5834 9.36 45.1834 8.928 46.9434 8.928V17.616H44.6874C42.6394 17.616 41.1034 18.064 40.0794 18.96C39.0554 19.824 38.5434 21.36 38.5434 23.568V36H30.3354V9.216H38.5434V13.68ZM77.3146 9.216V36H69.1066V32.352C68.2746 33.536 67.1386 34.496 65.6986 35.232C64.2906 35.936 62.7226 36.288 60.9946 36.288C58.9466 36.288 57.1386 35.84 55.5706 34.944C54.0026 34.016 52.7866 32.688 51.9226 30.96C51.0586 29.232 50.6266 27.2 50.6266 24.864V9.216H58.7866V23.76C58.7866 25.552 59.2506 26.944 60.1786 27.936C61.1066 28.928 62.3546 29.424 63.9226 29.424C65.5226 29.424 66.7866 28.928 67.7146 27.936C68.6426 26.944 69.1066 25.552 69.1066 23.76V9.216H77.3146ZM94.1064 36.384C91.7704 36.384 89.6904 35.984 87.8664 35.184C86.0424 34.384 84.6024 33.296 83.5464 31.92C82.4904 30.512 81.8984 28.944 81.7704 27.216H89.8824C89.9784 28.144 90.4104 28.896 91.1784 29.472C91.9464 30.048 92.8904 30.336 94.0104 30.336C95.0344 30.336 95.8184 30.144 96.3624 29.76C96.9384 29.344 97.2264 28.816 97.2264 28.176C97.2264 27.408 96.8264 26.848 96.0264 26.496C95.2264 26.112 93.9304 25.696 92.1384 25.248C90.2184 24.8 88.6184 24.336 87.3384 23.856C86.0584 23.344 84.9544 22.56 84.0264 21.504C83.0984 20.416 82.6344 18.96 82.6344 17.136C82.6344 15.6 83.0504 14.208 83.8824 12.96C84.7464 11.68 85.9944 10.672 87.6264 9.936C89.2904 9.2 91.2584 8.832 93.5304 8.832C96.8904 8.832 99.5304 9.664 101.45 11.328C103.402 12.992 104.522 15.2 104.81 17.952H97.2264C97.0984 17.024 96.6824 16.288 95.9784 15.744C95.3064 15.2 94.4104 14.928 93.2904 14.928C92.3304 14.928 91.5944 15.12 91.0824 15.504C90.5704 15.856 90.3144 16.352 90.3144 16.992C90.3144 17.76 90.7144 18.336 91.5144 18.72C92.3464 19.104 93.6264 19.488 95.3544 19.872C97.3384 20.384 98.9544 20.896 100.202 21.408C101.45 21.888 102.538 22.688 103.466 23.808C104.426 24.896 104.922 26.368 104.954 28.224C104.954 29.792 104.506 31.2 103.61 32.448C102.746 33.664 101.482 34.624 99.8184 35.328C98.1864 36.032 96.2824 36.384 94.1064 36.384ZM124.904 29.04V36H120.728C117.752 36 115.432 35.28 113.768 33.84C112.104 32.368 111.272 29.984 111.272 26.688V16.032H108.008V9.216H111.272V2.688H119.48V9.216H124.856V16.032H119.48V26.784C119.48 27.584 119.672 28.16 120.056 28.512C120.44 28.864 121.08 29.04 121.976 29.04H124.904ZM137.684 0.48V36H129.476V0.48H137.684ZM170.992 9.216L154.192 48.72H145.36L151.504 35.088L140.608 9.216H149.776L155.968 25.968L162.112 9.216H170.992Z" fill="black"/>
</svg>
